<?xml version="1.0" encoding="utf-8"?>
<!-- Generator: Adobe Illustrator 19.0.1, SVG Export Plug-In . SVG Version: 6.00 Build 0)  -->
<svg version="1.1" xmlns="http://www.w3.org/2000/svg" xmlns:xlink="http://www.w3.org/1999/xlink" x="0px" y="0px"
	 viewBox="0 0 541 353" style="enable-background:new 0 0 541 353;" xml:space="preserve">
<style type="text/css">
	.st0{fill:none;stroke:#0094BA;stroke-width:12;stroke-linecap:round;stroke-miterlimit:10;}
	.st1{fill:#B21031;stroke:#7A0018;stroke-width:2;stroke-miterlimit:10;}
	.st2{fill:#1E7AA0;stroke:#065572;stroke-width:2;stroke-miterlimit:10;}
	.st3{fill:none;stroke:#00A4CD;stroke-width:12;stroke-linecap:round;stroke-miterlimit:10;}
	.st4{fill:#C71539;stroke:#7A0018;stroke-width:2;stroke-miterlimit:10;}
	.st5{fill:none;stroke:#00C2F3;stroke-width:12;stroke-linecap:round;stroke-miterlimit:10;}
	.st6{fill:#E51C43;stroke:#7A0018;stroke-width:2;stroke-miterlimit:10;}
	.st7{fill:#919396;stroke:#757679;stroke-width:3;stroke-miterlimit:10;}
	.st8{fill:#ADAFB2;stroke:#757679;stroke-miterlimit:10;}
	.st9{fill:#1E7AA0;}
	.st10{clip-path:url(#SVGID_2_);}
	.st11{fill:#C17CB5;stroke:#8A4F81;stroke-miterlimit:10;}
	.st12{fill:#FFFFFF;}
	.st13{fill:#A06796;stroke:#8A4F81;stroke-miterlimit:10;}
	.st14{fill:#FFFBCE;stroke:#D4D0AC;stroke-miterlimit:10;}
	.st15{fill:#565546;}
	.st16{fill:none;stroke:#824A7A;stroke-miterlimit:10;}
	.st17{fill:#76C69B;stroke:#8A4F81;stroke-linecap:round;stroke-miterlimit:10;}
	.st18{fill:none;stroke:#8A4F81;stroke-miterlimit:10;}
	.st19{opacity:0.39;fill:#2FB0E5;stroke:#2283AA;stroke-width:3;stroke-miterlimit:10;}
	.st20{fill:none;}
	.st21{display:none;}
	.st22{display:inline;}
</style>
<g id="Voetstuk3">
	<path class="st0" d="M238.7,222.3c-8.4,6.7-20,18.1-26.5,35.5c-1.3,3.5-2.3,6.8-3,10"/>
	<path class="st1" d="M181.3,283.3c0,0,19.9-17.5,28.7-16.9c7.2,0.6,22.2,16.9,22.2,16.9s-13.4,7.2-20.5,7.2
		S181.3,283.3,181.3,283.3z"/>
</g>
<g id="Bottom">
	<ellipse class="st2" cx="247.4" cy="173.8" rx="201.5" ry="78.1"/>
</g>
<g id="Voetstuk2">
	<path class="st3" d="M427,204c12.8,5.6,32.5,7,58,43c16.2,22.9,12,19.5,21,53"/>
	<path class="st4" d="M472.3,311.1c0,0,24.4-21.5,35.2-20.7c8.8,0.7,27.3,20.7,27.3,20.7s-22.5,9.7-31.2,9.7
		C494.8,320.8,472.3,311.1,472.3,311.1z"/>
</g>
<g id="Voetstuk1">
	<path class="st5" d="M125,227.5c-11.4,4.5-37.4,16.6-57,44.5c-12.5,17.7-17.6,34.9-20,46"/>
	<path class="st6" d="M8.5,338c0,0,27.7-24.5,40-23.5c10,0.8,31,23.5,31,23.5S53.9,349,44,349S8.5,338,8.5,338z"/>
</g>
<g id="MainDisk">
	<ellipse class="st7" cx="247.4" cy="140.8" rx="222.8" ry="59.1"/>
</g>
<g id="SideDisk">
	<g>
		<path class="st8" d="M470.2,160.8v-20c0,32.6-99.8,59.1-222.8,59.1S24.6,173.4,24.6,140.8v20c0,32.6,99.8,59.1,222.8,59.1
			S470.2,193.4,470.2,160.8z"/>
	</g>
</g>
<g id="Koepel">
	<ellipse class="st9" cx="256" cy="134" rx="127" ry="33.6"/>
	<g id="Alien_copy">
		<g id="Body_copy">
		</g>
	</g>
	<g>
		<defs>
			<path id="SVGID_1_" d="M381.7,129.4c-2.4-67.7-58-121.8-126.3-121.8C185.6,7.6,129,64.2,129,134c0,18.6,56.8,33.6,127,33.6
				s127-15.1,127-33.6C383,132.4,382.5,130.9,381.7,129.4z"/>
		</defs>
		<clipPath id="SVGID_2_">
			<use xlink:href="#SVGID_1_"  style="overflow:visible;"/>
		</clipPath>
		<g class="st10">
			<path class="st11" d="M261,117.7l-31.3,1.6c0,0-6.8,12.6-10,16.1c-4.1,4.5-14.2,11.8-19.7,14.6c-4.8,2.5-15.1,6.2-20.5,6.7
				c-10.5,0.9-31.2-6.1-41.7-5.9c-5,0.1-15,2-19.7,3.7c-4,1.4-14.9,8.3-14.9,8.3s14.2,0,18.9,0c4.5,0,13.6-0.7,18.1-0.2
				c10,1.1,29.3,9.7,39.3,9c9.5-0.6,27.4-8.2,35.6-13c4.6-2.7,16-14,16-14s-12.5,22.2-19.3,26.9c-8.2,5.7-29,8.2-38.8,10.6
				c-10.9,2.8-43.9,10.2-43.9,10.2s18.3,2.3,24.4,2.4c9.1,0.1,27.4-0.9,36.3-2.8c6.6-1.3,19.6-5.3,25.4-8.7
				c5.6-3.3,15.2-12.3,19.3-17.3c3.9-4.8,12.4-21.4,12.4-21.4s-4.6,20.1-6.5,26.8c-1.1,3.8-4.2,11.3-5.1,15.1
				c-1.7,7-8,22.3-4.3,28.5c3.1,5.4,17.1,7.7,23.2,8.9c4.3,0.8,17.3,0,17.3,0s-10.9-5.8-14.6-7.7c-3-1.5-10.6-2.9-11.9-5.9
				c-1.9-4.6,4.6-14.3,6-19c1.1-3.7,3-11.1,4.1-14.8c1.5-4.8,6.5-19.1,6.5-19.1s2.4,16.6,4.7,21.6c2.3,5,8.4,14.8,13,17.7
				c7.8,4.8,27,6.2,36.2,5.9c6.2-0.2,24.4-5.5,24.4-5.5s-22.6-7.3-23.8-7.3s-26.7-2.2-32.5-8.3c-7.1-7.5-8.7-40.3-8.7-40.3
				s16.4,16.5,23.2,20.1c5.8,3.1,19,5.7,25.6,6.7c7.4,1.1,22.5,2.8,29.9,1.6c3.4-0.6,10.2-3,13-5.1c2.5-1.9,7.7-7.1,7.5-10.2
				c-0.3-5.8-10.3-14.9-15.7-16.9c-4.4-1.6-18.5,2-18.5,2s19.3,8.6,19.5,13.2c0.1,2.3-9.8,5.2-12,5.7c-9.5,2.3-31.7-4-40.5-8.3
				c-5.3-2.6-12.3-13.2-16.5-17.3c-2.5-2.4-7.9-11.6-7.9-11.6l-1.2-10L261,117.7z"/>
			<g id="Head_1_">
				<path d="M276.2,103.1l4.8-23.8l-22,11.9c0,0-20.2,3.6-22,4.2c-1.8,0.6-23.8-4.2-23.8-4.2L200.7,92l1.1,7.7l6.6,9.3l19.9,8h36.6
					L276.2,103.1z"/>
				<path class="st12" d="M203.4,95.5l-1,1.4c0,0,0.6,2.1,1,2.6c3,3.1,11.7,5.6,15.9,6.7c3.8,1.1,11.7,1.8,15.7,2.2
					c3.4,0.3,10.1,0.9,13.5,0.8c3.2-0.1,9.5-0.9,12.5-1.8c1-0.3,2.9-1.4,3.9-1.7c2.3-0.7,9.3-1.8,9.3-1.8l10.1-16.1l-26.2-3.3
					L203.4,95.5z"/>
				<ellipse class="st13" cx="220.9" cy="51.1" rx="7.6" ry="10.4"/>
				<path class="st11" d="M237.9,38c-7.8,3.4-22.6,13.7-28.4,20c-6.1,6.6-16.7,26.6-14.9,36.1c0.3,1.6,6,2.1,6,2.1
					s18.7,6.3,25.1,7.4c8.6,1.5,23.9,3.4,34.1,0c5.4-1.8,16.6-14.9,16.6-14.9s-10.6,18.4-16.7,21.4c-9.1,4.4-30.7,2.5-40.5,0
					c-4-1-11.6-4.9-14.3-7.9c-0.8-0.9-2.6-3.3-2.6-5.3c0-0.4,1.2,0.5-1.1-0.4c-0.2-0.1-0.9-0.5-1.1-0.1c-1.4,3.1,0.2,8,1,9.8
					c2,4.3,10.1,10.2,14.3,12.5c6.5,3.5,21,7.9,28.4,8.1c10.7,0.3,33.2-3.2,41.8-9.5c8.1-5.9,18.3-24.7,20.2-34.5
					c1.9-9.9-4.7-31.6-11.9-38.7c-4.9-4.8-19.4-9.1-26.2-9.1C260.6,35,244.6,35.1,237.9,38z"/>
				<ellipse class="st14" cx="275" cy="64.9" rx="9.2" ry="12.8"/>
				<ellipse class="st15" cx="275" cy="64.9" rx="3.9" ry="12.8"/>
				<path class="st16" d="M221.5,80.5c1.5,1.3,2.1,3.3,1.4,5c-0.9,2.2-3.6,3.1-5,2.4c-1.4-0.8-1.1-3.5-1.8-3.6c-0.7,0-2.4,1.8-3.5,2
					c-1.1,0.2-1.5-1.5-1.4-4.2c0-1.7,0.7-2.9,1.2-3.6"/>
				<path class="st17" d="M232.6,55.5c2-3.5,4-8.3,3.8-14.1c-0.3-8.5-5.2-14.2-3.8-15.3c1.2-0.9,6,2.1,8.9,6.5
					c3.6,5.4,2.7,14,4,14.1c1.5,0.1,4.5-10,2.8-15.5c-0.8-2.4-2.3-3.9-2-4.2c0.4-0.3,3.6,2,5.8,5.6c2.2,3.7,1.8,8.5,2.9,8.7
					c1.6,0.2,4.4-7.1,3.2-10.8c-0.3-1.1-1-1.9-0.8-2c0.4-0.3,3.9,0.8,5.7,3.8c0.6,1.1,0.8,2.2,0.8,2.9"/>
				<path class="st18" d="M261.9,63.2c0-1.9,0.3-6.3,3.3-10.4c1.4-1.9,4-5.5,8.3-5.9c4.4-0.4,7.8,2.6,8.9,3.6
					c1.7,1.5,2.7,3.1,3.3,4.2"/>
			</g>
		</g>
	</g>
	<path class="st19" d="M381.7,129.4c-2.4-67.7-58-121.8-126.3-121.8C185.6,7.6,129,64.2,129,134c0,18.6,56.8,33.6,127,33.6
		s127-15.1,127-33.6C383,132.4,382.5,130.9,381.7,129.4z"/>
	<rect x="153.4" y="37.4" class="st20" width="188" height="100.5"/>
</g>
<g id="Alien" class="st21">
	<g id="Body" class="st22">
		<path class="st11" d="M561.8-77.3l-19.9,1c0,0-4.3,8-6.4,10.3c-2.6,2.9-9,7.5-12.5,9.3c-3,1.6-9.6,4-13,4.3
			c-6.7,0.6-19.8-3.9-26.5-3.8c-3.2,0.1-9.5,1.3-12.5,2.4c-2.6,0.9-9.5,5.3-9.5,5.3s9,0,12,0c2.9,0,8.6-0.4,11.5-0.1
			c6.4,0.7,18.6,6.1,25,5.8c6-0.4,17.4-5.2,22.6-8.3c2.9-1.7,10.1-8.9,10.1-8.9S534.8-46,530.5-43c-5.2,3.6-18.4,5.2-24.6,6.8
			c-6.9,1.8-27.9,6.5-27.9,6.5s11.6,1.5,15.5,1.5c5.8,0.1,17.4-0.6,23.1-1.8c4.2-0.9,12.5-3.3,16.2-5.5c3.6-2.1,9.7-7.8,12.3-11
			c2.5-3.1,7.9-13.6,7.9-13.6s-2.9,12.8-4.1,17c-0.7,2.4-2.7,7.2-3.3,9.6c-1.1,4.5-5.1,14.2-2.8,18.1c2,3.4,10.9,4.9,14.8,5.6
			c2.7,0.5,11,0,11,0s-6.9-3.7-9.3-4.9c-1.9-1-6.7-1.8-7.5-3.8c-1.2-2.9,2.9-9.1,3.8-12.1c0.7-2.3,1.9-7.1,2.6-9.4
			c0.9-3.1,4.1-12.1,4.1-12.1s1.5,10.5,3,13.8c1.4,3.2,5.3,9.4,8.3,11.3c5,3,17.2,3.9,23,3.8c4-0.1,15.5-3.5,15.5-3.5
			s-14.4-4.6-15.1-4.6s-17-1.4-20.6-5.3c-4.5-4.7-5.5-25.6-5.5-25.6s10.4,10.5,14.8,12.8c3.7,2,12.1,3.6,16.3,4.3
			c4.7,0.7,14.3,1.8,19,1c2.2-0.4,6.5-1.9,8.3-3.3c1.6-1.2,4.9-4.5,4.8-6.5c-0.2-3.7-6.6-9.5-10-10.8c-2.8-1-11.8,1.3-11.8,1.3
			s12.2,5.5,12.4,8.4c0.1,1.5-6.2,3.3-7.6,3.6c-6,1.5-20.1-2.5-25.8-5.3c-3.4-1.6-7.8-8.4-10.5-11c-1.6-1.5-5-7.4-5-7.4l-0.8-6.4
			L561.8-77.3z"/>
	</g>
	<g id="Head" class="st22">
		<path d="M569.5-92l4-20L555-102c0,0-17,3-18.5,3.5s-20-3.5-20-3.5l-10.5,0.7l0.9,6.5l5.6,7.8l16.8,6.8H560L569.5-92z"/>
		<path class="st12" d="M508.3-98.3l-0.9,1.2c0,0,0.5,1.7,0.9,2.1c2.5,2.6,9.8,4.7,13.3,5.7c3.2,0.9,9.9,1.5,13.2,1.8
			c2.8,0.3,8.5,0.8,11.3,0.7c2.6-0.1,7.9-0.8,10.5-1.5c0.9-0.2,2.4-1.2,3.2-1.4c1.9-0.6,7.8-1.5,7.8-1.5l8.5-13.5l-22-2.8
			L508.3-98.3z"/>
		<ellipse class="st13" cx="523" cy="-135.6" rx="6.4" ry="8.8"/>
		<path class="st11" d="M537.3-146.7c-6.6,2.9-19,11.5-23.8,16.8c-5.1,5.6-14,22.3-12.5,30.3c0.2,1.3,5,1.8,5,1.8s15.7,5.3,21.1,6.2
			c7.3,1.2,20.1,2.9,28.6,0c4.5-1.5,13.9-12.5,13.9-12.5s-8.9,15.5-14,18c-7.6,3.7-25.8,2.1-34,0c-3.3-0.9-9.7-4.1-12-6.7
			c-0.6-0.7-2.2-2.7-2.2-4.5c0-0.3,1,0.4-0.9-0.4c-0.2-0.1-0.8-0.4-0.9-0.1c-1.2,2.6,0.2,6.8,0.9,8.3c1.7,3.6,8.5,8.6,12,10.5
			c5.4,3,17.6,6.7,23.8,6.8c9,0.3,27.9-2.7,35.2-8c6.8-5,15.4-20.7,17-29c1.6-8.3-4-26.5-10-32.5c-4.1-4-16.3-7.6-22-7.7
			C556.4-149.2,542.9-149.1,537.3-146.7z"/>
		<ellipse class="st14" cx="568.5" cy="-124.1" rx="7.8" ry="10.8"/>
		<ellipse class="st15" cx="568.5" cy="-124.1" rx="3.3" ry="10.8"/>
		<path class="st16" d="M523.5-111c1.3,1.1,1.7,2.8,1.2,4.2c-0.7,1.8-3.1,2.6-4.2,2c-1.2-0.7-0.9-3-1.5-3c-0.6,0-2,1.5-3,1.7
			c-0.9,0.2-1.2-1.3-1.2-3.5c0-1.4,0.6-2.5,1-3"/>
		<path class="st17" d="M532.8-132c1.6-2.9,3.3-7,3.2-11.8c-0.2-7.2-4.4-11.9-3.2-12.8c1-0.8,5,1.8,7.5,5.5c3,4.6,2.2,11.8,3.4,11.9
			c1.3,0.1,3.8-8.4,2.3-13c-0.7-2-1.9-3.3-1.7-3.5c0.3-0.3,3,1.7,4.8,4.7c1.9,3.1,1.5,7.2,2.4,7.3c1.3,0.1,3.7-6,2.7-9.1
			c-0.3-0.9-0.8-1.6-0.7-1.7c0.3-0.3,3.3,0.7,4.8,3.2c0.5,0.9,0.7,1.8,0.7,2.4"/>
		<path class="st18" d="M557.5-125.5c0-1.6,0.3-5.3,2.8-8.8c1.1-1.6,3.3-4.6,7-5c3.7-0.4,6.5,2.2,7.5,3c1.4,1.3,2.3,2.6,2.8,3.5"/>
	</g>
</g>
</svg>
