<svg xmlns="http://www.w3.org/2000/svg" viewBox="0 0 483 314"><defs><style>.cls-1{fill:none;stroke:#14737b;stroke-linecap:round;stroke-linejoin:round;stroke-width:10px;}.cls-2{fill:#ececec;}.cls-3{fill:#0c8389;}.cls-4{fill:#f6f6f6;}.cls-5{fill:#79babd;}.cls-10,.cls-6{fill:#67b2af;}.cls-7{fill:#14737b;opacity:0.88;}.cls-8{fill:#a21c26;}.cls-9{fill:#dc911b;}.cls-10{opacity:0.3;}</style></defs><title>KDKArtboard 1</title><g id="Layer_7" data-name="Layer 7"><line class="cls-1" x1="230.48" y1="237.1" x2="231.02" y2="217.45"/></g><g id="Schotel"><ellipse class="cls-2" cx="229.45" cy="166.77" rx="165.24" ry="54.95"/><path class="cls-3" d="M394.69,167c0,5.33-74,9.66-165.24,9.66S64.21,172.37,64.21,167"/><path class="cls-4" d="M64.21,167c0,5.33,74,13.73,165.24,13.73s165.24-8.4,165.24-13.73v-.27c0-30.35-74-55-165.24-55s-165.24,24.6-165.24,55"/></g><g id="Voorste_Wielen" data-name="Voorste Wielen"><polyline class="cls-1" points="78.92 234.25 85.3 225.79 100.47 205.68 106.91 197.15"/><polyline class="cls-1" points="390.72 234.25 384.34 225.79 370.34 207.22 362.74 197.15"/><path class="cls-2" d="M84.48,227.12a14,14,0,1,1-8.42-2.82A13.94,13.94,0,0,1,84.48,227.12Z"/><path class="cls-2" d="M238.44,232.22a14,14,0,1,1-8.43-2.81A14,14,0,0,1,238.44,232.22Z"/><path class="cls-2" d="M401.14,225.92a14,14,0,1,1-8.43-2.81A14,14,0,0,1,401.14,225.92Z"/></g><g id="Onderkoepel"><ellipse class="cls-5" cx="234" cy="123.83" rx="89.28" ry="15.5"/></g><g id="Layer_10" data-name="Layer 10"><path class="cls-6" d="M243.68,124.9h0a18.6,18.6,0,1,0-20.14-.68h0c0,6-6.85,8.53-6.85,8.53H248.5C242.5,129.5,243.68,124.9,243.68,124.9ZM241,102.22a3.39,3.39,0,1,1-3.39,3.39A3.39,3.39,0,0,1,241,102.22Zm-15,0a3.39,3.39,0,1,1-3.39,3.39A3.39,3.39,0,0,1,226.06,102.22Z"/><circle class="cls-5" cx="241.03" cy="105.61" r="3.39"/><circle class="cls-5" cx="226.06" cy="105.61" r="3.39"/></g><g id="Lampen"><path class="cls-7" d="M126.26,175.65a10.6,10.6,0,0,0-21.16,0c0,.22,0,.44,0,.67a10.6,10.6,0,1,0,21.2,0C126.28,176.09,126.27,175.87,126.26,175.65Zm-4.4,2.73a6.52,6.52,0,0,1-12.36,0,6.68,6.68,0,0,1-.33-2.06c0-.22,0-.45,0-.67a6.52,6.52,0,0,1,13,0c0,.22,0,.45,0,.67A6.68,6.68,0,0,1,121.86,178.38Z"/><path class="cls-8" d="M119.33,175.65a7.78,7.78,0,0,0-7.3,0,5.65,5.65,0,0,0-2.53,2.73,6.52,6.52,0,0,0,12.36,0A5.65,5.65,0,0,0,119.33,175.65Z"/><path class="cls-9" d="M122.16,175.65a6.52,6.52,0,0,0-13,0c0,.22,0,.45,0,.67a6.68,6.68,0,0,0,.33,2.06,5.65,5.65,0,0,1,2.53-2.73,7.78,7.78,0,0,1,7.3,0,5.65,5.65,0,0,1,2.53,2.73,6.68,6.68,0,0,0,.33-2.06C122.19,176.1,122.18,175.87,122.16,175.65Z"/><path class="cls-7" d="M240,180.1a10.6,10.6,0,0,0-21.16,0c0,.22,0,.44,0,.67a10.6,10.6,0,0,0,21.2,0C240.05,180.54,240,180.32,240,180.1Zm-4.4,2.73a6.52,6.52,0,0,1-12.36,0,6.68,6.68,0,0,1-.33-2.06c0-.22,0-.45,0-.67a6.52,6.52,0,0,1,13,0c0,.22,0,.45,0,.67A6.68,6.68,0,0,1,235.63,182.83Z"/><path class="cls-8" d="M233.1,180.1a7.78,7.78,0,0,0-7.3,0,5.65,5.65,0,0,0-2.53,2.73,6.52,6.52,0,0,0,12.36,0A5.65,5.65,0,0,0,233.1,180.1Z"/><path class="cls-9" d="M235.93,180.1a6.52,6.52,0,0,0-13,0c0,.22,0,.45,0,.67a6.68,6.68,0,0,0,.33,2.06,5.65,5.65,0,0,1,2.53-2.73,7.78,7.78,0,0,1,7.3,0,5.65,5.65,0,0,1,2.53,2.73,6.68,6.68,0,0,0,.33-2.06C236,180.55,236,180.32,235.93,180.1Z"/><path class="cls-7" d="M358.16,174.07a10.6,10.6,0,0,0-21.16,0c0,.22,0,.44,0,.67a10.6,10.6,0,0,0,21.2,0C358.18,174.51,358.17,174.29,358.16,174.07Zm-4.4,2.73a6.52,6.52,0,0,1-12.36,0,6.68,6.68,0,0,1-.33-2.06c0-.22,0-.45,0-.67a6.52,6.52,0,0,1,13,0c0,.22,0,.45,0,.67A6.68,6.68,0,0,1,353.76,176.8Z"/><path class="cls-8" d="M351.23,174.07a7.78,7.78,0,0,0-7.3,0,5.65,5.65,0,0,0-2.53,2.73,6.52,6.52,0,0,0,12.36,0A5.65,5.65,0,0,0,351.23,174.07Z"/><path class="cls-9" d="M354.06,174.07a6.52,6.52,0,0,0-13,0c0,.22,0,.45,0,.67a6.68,6.68,0,0,0,.33,2.06,5.65,5.65,0,0,1,2.53-2.73,7.78,7.78,0,0,1,7.3,0,5.65,5.65,0,0,1,2.53,2.73,6.68,6.68,0,0,0,.33-2.06C354.09,174.52,354.08,174.29,354.06,174.07Z"/></g><g id="Koepel"><path class="cls-10" d="M234,139.33c-49.31,0-89.28-7.2-89.28-16.07,0-37.53,40-68,89.28-68s89.28,30.43,89.28,68C323.28,132.13,283.31,139.33,234,139.33Z"/><path class="cls-10" d="M234,55.3c-48.33,0-89.28,30.43-89.28,68,0,5,12.48,9.39,32.09,12.34C176.81,135.6,173.67,57.6,234,55.3Z"/></g></svg>