<svg xmlns="http://www.w3.org/2000/svg" xmlns:xlink="http://www.w3.org/1999/xlink" viewBox="0 0 906 1804.2"><defs><style>.cls-1{isolation:isolate;}.cls-2{fill:url(#linear-gradient);}.cls-3{fill:url(#linear-gradient-2);}.cls-4{fill:#fff;}.cls-5{fill:url(#linear-gradient-3);}.cls-6{fill:url(#linear-gradient-4);}.cls-7{fill:none;stroke:#c0c1c4;stroke-miterlimit:10;}.cls-8{fill:#b3b3b3;}.cls-9{fill:url(#linear-gradient-5);}.cls-10{opacity:0.15;mix-blend-mode:multiply;}.cls-11{opacity:0.35;}.cls-12{fill:url(#linear-gradient-6);}.cls-13{fill:gray;}</style><linearGradient id="linear-gradient" x1="381" y1="211" x2="716" y2="211" gradientUnits="userSpaceOnUse"><stop offset="0" stop-color="#b3b3b3"/><stop offset="0.13" stop-color="#aaa"/><stop offset="0.34" stop-color="#939393"/><stop offset="0.6" stop-color="#6d6d6d"/><stop offset="0.64" stop-color="#666"/><stop offset="0.65" stop-color="#6c6c6c"/><stop offset="0.75" stop-color="#8b8b8b"/><stop offset="0.84" stop-color="#a1a1a1"/><stop offset="0.92" stop-color="#aeaeae"/><stop offset="1" stop-color="#b3b3b3"/></linearGradient><linearGradient id="linear-gradient-2" x1="276.06" y1="1005.5" x2="821.94" y2="1005.5" gradientUnits="userSpaceOnUse"><stop offset="0" stop-color="red"/><stop offset="0.15" stop-color="#e10000"/><stop offset="0.48" stop-color="#a00000"/><stop offset="0.64" stop-color="#870000"/><stop offset="1" stop-color="red"/></linearGradient><linearGradient id="linear-gradient-3" x1="98.5" y1="1494.7" x2="359.5" y2="1494.7" gradientUnits="userSpaceOnUse"><stop offset="0" stop-color="#ccc"/><stop offset="0.2" stop-color="#c3c3c3"/><stop offset="0.53" stop-color="#acacac"/><stop offset="0.94" stop-color="#868686"/><stop offset="1" stop-color="gray"/></linearGradient><linearGradient id="linear-gradient-4" x1="743.5" y1="1494.7" x2="1004.5" y2="1494.7" xlink:href="#linear-gradient-3"/><linearGradient id="linear-gradient-5" x1="499" y1="635.5" x2="714.5" y2="635.5" gradientUnits="userSpaceOnUse"><stop offset="0" stop-color="#fff"/><stop offset="0.27" stop-color="#fdfdfd"/><stop offset="0.41" stop-color="#f5f5f5"/><stop offset="0.52" stop-color="#e7e7e7"/><stop offset="0.53" stop-color="#e6e6e6"/><stop offset="0.64" stop-color="#f4f4f4"/><stop offset="0.78" stop-color="#fcfcfc"/><stop offset="0.99" stop-color="#fff"/></linearGradient><linearGradient id="linear-gradient-6" x1="546.68" y1="635.5" x2="666.82" y2="635.5" gradientUnits="userSpaceOnUse"><stop offset="0" stop-color="#cce0f4"/><stop offset="0.06" stop-color="#c3dbf3"/><stop offset="0.16" stop-color="#a9cff0"/><stop offset="0.3" stop-color="#80bbec"/><stop offset="0.38" stop-color="#60abe9"/><stop offset="0.6" stop-color="#c2dcf2"/><stop offset="0.63" stop-color="#b7daf2"/><stop offset="0.68" stop-color="#9ad6f1"/><stop offset="0.74" stop-color="#6bd0f0"/><stop offset="0.82" stop-color="#2bc7ee"/><stop offset="0.87" stop-color="#00c1ed"/><stop offset="0.99" stop-color="#009ded"/></linearGradient></defs><title>Raket</title><g class="cls-1"><g id="Layer_6" data-name="Layer 6"><path class="cls-2" d="M716,362.5H548.5l-167-.5-.49.3c.59-8.78,21.15-302.8,167.5-302.8C697.06,59.5,716,362.5,716,362.5Z" transform="translate(-98.5 -59.5)"/></g><g id="Layer_5" data-name="Layer 5"><path class="cls-3" d="M755.73,434.58c-4.54-29.74-11.85-57.89-39.23-74.08L549,360l-167.5.5c-27.38,16.19-34.69,44.34-39.23,74.08-47.82,313-73.75,625.93-64.27,942.81,1.59,53.16-3.67,117.27,23.6,164.92C347.54,1622.58,488,1651,549,1651s201.46-28.42,247.4-108.69c27.27-47.65,22-111.76,23.6-164.92C829.48,1060.51,803.55,747.56,755.73,434.58Z" transform="translate(-98.5 -59.5)"/></g><g id="Layer_7" data-name="Layer 7"><path class="cls-4" d="M549.5,1244.5c134.52,0,246.66-27,271.94-62.7q-.69-48-2.36-95.88c-29.44,34.19-138.92,59.58-269.5,59.58-132.3,0-242.94-26.06-270.61-60.93q-1.7,47.85-2.39,95.79C299.83,1216.83,413.18,1244.5,549.5,1244.5Z" transform="translate(-98.5 -59.5)"/><path class="cls-4" d="M550,1347.5c-131,0-241.18-24.44-273.72-57.64q.42,43.73,1.72,87.53.11,3.63.17,7.31c34.76,32.26,143.3,55.8,271.83,55.8,126.12,0,233-22.66,269.79-54q.08-4.6.21-9.12,1.28-42.83,1.7-85.57C786.8,1324,678.38,1347.5,550,1347.5Z" transform="translate(-98.5 -59.5)"/></g><g id="Layer_3" data-name="Layer 3"><circle class="cls-4" cx="366.5" cy="1450.5" r="29"/><circle class="cls-4" cx="553.5" cy="1450.5" r="29"/><path class="cls-5" d="M359.5,1132v383s-112-16-188,273c-35,122-73,64-73,47,0-209.8,27-432.33,151.77-608.77,25.92-36.64,59.69-69.49,95.67-96.21C351,1126.24,359.5,1121.73,359.5,1132Z" transform="translate(-98.5 -59.5)"/><path class="cls-6" d="M1004.5,1835c0,17-38,75-73-47-76-289-188-273-188-273V1132c0-10.27,8.47-5.76,13.56-2,36,26.72,69.75,59.57,95.67,96.21C977.52,1402.67,1004.5,1625.2,1004.5,1835Z" transform="translate(-98.5 -59.5)"/><path class="cls-7" d="M344.46,1600.5" transform="translate(-98.5 -59.5)"/><path class="cls-8" d="M603.9,520a105,105,0,0,0-38,7.08,3.07,3.07,0,0,0-.42.17c-41.75,16.32-71.48,58.52-71.48,108s29.73,91.68,71.48,108a1.4,1.4,0,0,0,.34.13,104.87,104.87,0,0,0,38.08,7.12c60.69,0,109.89-51.6,109.89-115.25S664.59,520,603.9,520Zm0,179.5a59.2,59.2,0,0,1-38.06-13.9l-.36-.3a66.24,66.24,0,0,1,0-100.1c.14-.12.26-.23.4-.33a59.18,59.18,0,0,1,38-13.87c33.83,0,61.26,28.77,61.26,64.25S637.73,699.5,603.9,699.5Z" transform="translate(-98.5 -59.5)"/><path class="cls-9" d="M606.75,522.5a103,103,0,0,0-37.25,6.94,2.52,2.52,0,0,0-.41.17C528.15,545.61,499,587,499,635.5s29.15,89.89,70.09,105.89a1.2,1.2,0,0,0,.33.13,102.79,102.79,0,0,0,37.33,7c59.51,0,107.75-50.59,107.75-113S666.26,522.5,606.75,522.5Zm0,176a58,58,0,0,1-37.31-13.63,3.27,3.27,0,0,1-.35-.3,64.93,64.93,0,0,1,0-98.14,4,4,0,0,1,.39-.33,58,58,0,0,1,37.27-13.6c33.17,0,60.07,28.21,60.07,63S639.92,698.5,606.75,698.5Z" transform="translate(-98.5 -59.5)"/><g class="cls-10"><path d="M609.75,572.5a58,58,0,0,0-37.27,13.6,4,4,0,0,0-.39.33,64.93,64.93,0,0,0,0,98.14,3.27,3.27,0,0,0,.35.3,58,58,0,0,0,37.31,13.63c33.17,0,60.07-28.21,60.07-63S642.92,572.5,609.75,572.5Z" transform="translate(-98.5 -59.5)"/></g><path class="cls-4" d="M606.75,572.5a58,58,0,0,0-37.27,13.6,4,4,0,0,0-.39.33,64.93,64.93,0,0,0,0,98.14,3.27,3.27,0,0,0,.35.3,58,58,0,0,0,37.31,13.63c33.17,0,60.07-28.21,60.07-63S639.92,572.5,606.75,572.5Z" transform="translate(-98.5 -59.5)"/><g class="cls-11"><g class="cls-10"><path d="M609.75,572.5a58,58,0,0,0-37.27,13.6,4,4,0,0,0-.39.33,64.93,64.93,0,0,0,0,98.14,3.27,3.27,0,0,0,.35.3,58,58,0,0,0,37.31,13.63c33.17,0,60.07-28.21,60.07-63S642.92,572.5,609.75,572.5Z" transform="translate(-98.5 -59.5)"/></g><path class="cls-12" d="M606.75,572.5a58,58,0,0,0-37.27,13.6,4,4,0,0,0-.39.33,64.93,64.93,0,0,0,0,98.14,3.27,3.27,0,0,0,.35.3,58,58,0,0,0,37.31,13.63c33.17,0,60.07-28.21,60.07-63S639.92,572.5,606.75,572.5Z" transform="translate(-98.5 -59.5)"/></g><ellipse class="cls-13" cx="507.77" cy="483.5" rx="5.72" ry="6"/><ellipse class="cls-13" cx="463.74" cy="496.14" rx="5.72" ry="6"/><ellipse class="cls-13" cx="431.63" cy="530.18" rx="5.72" ry="6"/><ellipse class="cls-13" cx="420.05" cy="576.5" rx="5.72" ry="6"/><ellipse class="cls-13" cx="432.1" cy="622.68" rx="5.72" ry="6"/><ellipse class="cls-13" cx="464.56" cy="656.36" rx="5.72" ry="6"/><ellipse class="cls-13" cx="508.73" cy="668.5" rx="5.72" ry="6"/><ellipse class="cls-13" cx="552.76" cy="655.86" rx="5.72" ry="6"/><ellipse class="cls-13" cx="584.87" cy="621.82" rx="5.72" ry="6"/><ellipse class="cls-13" cx="596.45" cy="575.5" rx="5.72" ry="6"/><ellipse class="cls-13" cx="584.4" cy="529.32" rx="5.72" ry="6"/><ellipse class="cls-13" cx="551.94" cy="495.64" rx="5.72" ry="6"/></g></g></svg>